<svg width="180" height="180" viewBox="0 0 180 180" fill="none" xmlns="http://www.w3.org/2000/svg">
  <defs>
    <filter id="softEdgeGreen">
      <feGaussianBlur in="SourceAlpha" stdDeviation="1" result="blur"/>
      <feOffset in="blur" dx="0" dy="1" result="offsetBlur"/>
      <feMerge>
        <feMergeNode in="offsetBlur"/>
        <feMergeNode in="SourceGraphic"/>
      </feMerge>
    </filter>
  </defs>

  <circle cx="40" cy="40" r="5" fill="#E8F5E9"/>
  <circle cx="150" cy="130" r="4" fill="#C8E6C9"/>
  <circle cx="30" cy="140" r="3" fill="#DCEDC8"/>

  <g transform="rotate(-20 125 100)" filter="url(#softEdgeGreen)">
    <rect x="90" y="85" width="70" height="25" rx="12.5" fill="#Dcedc8" stroke="#AED581" stroke-width="3"/>
    <rect x="110" y="88" width="30" height="19" rx="5" fill="#F1F8E9"/>
    <circle cx="100" cy="97" r="1.5" fill="#AED581"/>
    <circle cx="150" cy="97" r="1.5" fill="#AED581"/>
    <circle cx="118" cy="97" r="1.5" fill="#558B2F"/>
    <circle cx="132" cy="97" r="1.5" fill="#558B2F"/>
    <path d="M123 102 Q 125 105, 127 102" stroke="#558B2F" stroke-width="1.5" stroke-linecap="round"/>
  </g>

  <g filter="url(#softEdgeGreen)">
    <path d="M90 155 C 90 155, 145 125, 145 85 C 145 55, 125 35, 100 35 C 85 35, 90 55, 90 55 C 90 55, 95 35, 80 35 C 55 35, 35 55, 35 85 C 35 125, 90 155, 90 155 Z" fill="#81C784" stroke="#4DB6AC" stroke-width="5" stroke-linejoin="round"/>
    
    <circle cx="70" cy="85" r="4" fill="#33691E"/> <circle cx="110" cy="85" r="4" fill="#33691E"/> <ellipse cx="65" cy="95" rx="5" ry="3" fill="#B9F6CA" opacity="0.7"/> <ellipse cx="115" cy="95" rx="5" ry="3" fill="#B9F6CA" opacity="0.7"/> <path d="M85 95 Q 90 100, 95 95" stroke="#33691E" stroke-width="3" stroke-linecap="round"/> <g transform="translate(70, 20) rotate(-5)">
      <path d="M0 20 L 5 5 Q 20 0, 35 5 L 40 20 L 0 20 Z" fill="white" stroke="#C8E6C9" stroke-width="2"/>
      <rect x="18" y="6" width="4" height="12" rx="1" fill="#009688"/>
      <rect x="14" y="10" width="12" height="4" rx="1" fill="#009688"/>
    </g>
  </g>
  
  <path d="M140 50 L 142 45 L 144 50 L 149 52 L 144 54 L 142 59 L 140 54 L 135 52 Z" fill="#E8F5E9"/>
</svg>